<svg
          version="1.1"
          xmlns="http://www.w3.org/2000/svg"
          xlink="http://www.w3.org/1999/xlink"
          x="0px"
          y="0px"
          viewBox="0 0 100 100"
          enable-background="new 0 0 100 100"
          space="preserve"
        >
          <svg
            xmlns="http://www.w3.org/2000/svg"
            viewBox="-1 -1 191 125"
            id="icon-vehicle-3"
          >
            <g transform="translate(0 .4)" fill="none" fill-rule="evenodd">
              <path
                d="M178.95 116.45c0 2.94-40.06 5.33-89.47 5.33S0 119.4 0 116.45s40.06-5.34 89.48-5.34c49.41 0 89.47 2.4 89.47 5.34z"
                fill="#E6E7E8"
              ></path>
              <path
                d="M42.68 115.85c0 .95-7.08 1.72-15.83 1.72s-15.83-.77-15.83-1.72 7.09-1.71 15.83-1.71c8.75 0 15.83.76 15.83 1.71m129.14 0c0 .95-7.08 1.72-15.83 1.72s-15.83-.77-15.83-1.72 7.1-1.71 15.83-1.71c8.75 0 15.83.76 15.83 1.71"
                fill="#BCBEC0"
              ></path>
              <path
                d="M60.38 97.37l-20.34 2.29a.8.8 0 0 0-.7.88.8.8 0 0 0 .88.7l20.34-2.28a.8.8 0 0 0 .7-.88.8.8 0 0 0-.88-.7"
                fill="#1D2428"
              ></path>
              <path
                d="M128.2 43.85l-5.1 1.35a1.9 1.9 0 0 1-2.32-1.34 1.9 1.9 0 0 1 1.35-2.33l5.09-1.35a1.9 1.9 0 0 1 2.32 1.35 1.9 1.9 0 0 1-1.35 2.32"
                fill="#A7A9AC"
              ></path>
              <path
                d="M122.13 45.09l-3.77 1a1.47 1.47 0 0 1-1.8-1.05 1.47 1.47 0 0 1 1.05-1.8l3.77-1a1.47 1.47 0 0 1 1.8 1.05 1.47 1.47 0 0 1-1.05 1.8"
                fill="#58595B"
              ></path>
              <path
                d="M119.37 44.67a1.47 1.47 0 1 1-2.94 0 1.47 1.47 0 0 1 2.94 0"
                fill="#FF9810"
              ></path>
              <path
                d="M61.33 101.7c-.73 0-1.33-.6-1.33-1.33v-4.52a1.33 1.33 0 1 1 2.66 0v4.52c0 .73-.6 1.33-1.33 1.33"
                fill="#1D2428"
              ></path>
              <path
                d="M164.15 78.84v-5a2.4 2.4 0 0 1 2.38-2.39 2.4 2.4 0 0 1 2.4 2.39v5a2.4 2.4 0 0 1-2.4 2.39 2.4 2.4 0 0 1-2.38-2.39"
                fill="#FFBC00"
              ></path>
              <path
                d="M166.53 71.95a1.89 1.89 0 0 0-1.88 1.89v5a1.89 1.89 0 0 0 3.77 0v-5c0-1.04-.84-1.89-1.88-1.89m0 9.78a2.89 2.89 0 0 1-2.89-2.89v-5a2.89 2.89 0 0 1 2.88-2.89 2.89 2.89 0 0 1 2.9 2.89v5a2.89 2.89 0 0 1-2.9 2.89"
                fill="#3F474E"
              ></path>
              <path
                fill="#FF9810"
                mask="url(#db)"
                d="M48.69 61.95h4.9V11.93h-4.9z"
              ></path>
              <path
                fill="#EF8200"
                mask="url(#db)"
                d="M52.02 61.95h1.57V11.93h-1.57z"
              ></path>
              <path
                d="M172.24 100.1a16.04 16.04 0 1 1-32.08 0 16.04 16.04 0 0 1 32.08 0"
                fill="#31393F"
                mask="url(#db)"
              ></path>
              <path
                d="M165.93 100.1a9.73 9.73 0 1 1-19.46 0 9.73 9.73 0 0 1 19.46 0"
                fill="#FFF"
                mask="url(#db)"
              ></path>
              <path
                d="M156.2 90.94a9.18 9.18 0 0 0 0 18.34 9.18 9.18 0 0 0 0-18.34m0 19.45a10.3 10.3 0 0 1 0-20.57 10.3 10.3 0 0 1 0 20.57"
                fill="#1D2428"
                mask="url(#db)"
              ></path>
              <path
                d="M41.87 100.1a16.04 16.04 0 1 1-32.08 0 16.04 16.04 0 0 1 32.08 0"
                fill="#31393F"
                mask="url(#db)"
              ></path>
              <path
                d="M35.56 100.1a9.73 9.73 0 1 1-19.46 0 9.73 9.73 0 0 1 19.46 0"
                fill="#FFF"
                mask="url(#db)"
              ></path>
              <path
                d="M25.83 90.94a9.18 9.18 0 0 0 0 18.34 9.18 9.18 0 0 0 0-18.34m0 19.45a10.3 10.3 0 0 1 0-20.57 10.3 10.3 0 0 1 0 20.57"
                fill="#1D2428"
                mask="url(#db)"
              ></path>
              <path
                d="M25.83 95.63a4.48 4.48 0 0 0-4.48 4.48 4.48 4.48 0 0 0 4.48 4.48 4.48 4.48 0 0 0 4.48-4.48 4.48 4.48 0 0 0-4.48-4.48m0 11.19a6.71 6.71 0 0 1-6.7-6.71 6.71 6.71 0 0 1 6.7-6.7 6.71 6.71 0 0 1 6.7 6.7 6.71 6.71 0 0 1-6.7 6.7M156.2 95.64a4.48 4.48 0 0 0-4.48 4.48 4.48 4.48 0 0 0 4.48 4.48 4.48 4.48 0 0 0 4.48-4.48 4.48 4.48 0 0 0-4.48-4.48m0 11.19a6.71 6.71 0 0 1-6.7-6.71 6.71 6.71 0 0 1 6.7-6.7 6.71 6.71 0 0 1 6.7 6.7 6.71 6.71 0 0 1-6.7 6.7"
                fill="#FFBC00"
                mask="url(#db)"
              ></path>
              <path
                d="M92.74 43.3v14.43s.39 4.22-4.36 4.22V45.92l4.36-2.62z"
                fill="#EF5E72"
                mask="url(#db)"
              ></path>
              <path
                d="M88.97 46.26v15.07a3.5 3.5 0 0 0 2.34-1.02c.95-1.02.84-2.5.83-2.52V44.36l-3.17 1.9zm-.6 16.3a.6.6 0 0 1-.6-.6V45.91c0-.21.12-.4.3-.52l4.36-2.61a.6.6 0 0 1 .91.52v14.42c0 .03.17 1.96-1.13 3.38-.87.96-2.16 1.44-3.84 1.44z"
                fill="#3F474E"
                mask="url(#db)"
              ></path>
              <path
                fill="#58595B"
                mask="url(#db)"
                d="M95.87 39.77l-7.1 12.62V39.76z"
              ></path>
              <path
                d="M89.36 40.36v9.76l5.5-9.76h-5.5zm-.6 12.63a.6.6 0 0 1-.6-.6V39.76a.6.6 0 0 1 .6-.59h7.11a.6.6 0 0 1 .52.89l-7.1 12.62a.6.6 0 0 1-.53.3z"
                fill="#3F474E"
                mask="url(#db)"
              ></path>
              <path
                fill="#31393F"
                mask="url(#db)"
                d="M84.63 39.77h12.6V26.5h-12.6z"
              ></path>
              <path
                d="M156.2 76.49s2.63-4.8 9.37-4.9v9.26l-9.37-4.36z"
                fill="#939598"
                mask="url(#db)"
              ></path>
              <path
                d="M157.14 76.23l7.8 3.63v-7.6a10.32 10.32 0 0 0-7.8 3.97m8.43 5.26a.64.64 0 0 1-.27-.06l-9.37-4.36a.64.64 0 0 1-.29-.88c.12-.21 2.89-5.14 9.92-5.23a.68.68 0 0 1 .45.18c.12.12.2.28.2.45v9.26a.64.64 0 0 1-.64.64"
                fill="#3F474E"
                mask="url(#db)"
              ></path>
              <path
                d="M143.94 74.71h7.18s13.92-.18 18.21 10.77l-20.13 2.05s-2.54 0-4.82 2.94c-2.27 2.94-4.11 7.2-4.11 7.2h-3.5v-8.54l7.17-14.42z"
                fill="#939598"
                mask="url(#db)"
              ></path>
              <path
                d="M137.4 97.04h2.45c.52-1.13 2.1-4.48 4.03-6.96 2.44-3.15 5.2-3.19 5.32-3.19l19.21-1.95c-4.42-9.63-17.14-9.56-17.28-9.6h-6.8l-6.93 13.94v7.76zm2.87 1.27h-3.5a.64.64 0 0 1-.64-.63v-8.55a.63.63 0 0 1 .07-.28l7.18-14.42a.64.64 0 0 1 .56-.36h7.18c.13 0 14.4-.04 18.8 11.18a.64.64 0 0 1-.52.87l-20.14 2.04c-.15 0-2.34.07-4.38 2.7a38.94 38.94 0 0 0-4.03 7.07.64.64 0 0 1-.58.38zm17.68 1.8c0 .98-.78 1.78-1.75 1.78s-1.75-.8-1.75-1.78.78-1.78 1.75-1.78 1.75.8 1.75 1.78"
                fill="#3F474E"
                mask="url(#db)"
              ></path>
              <path
                d="M151.2 54.2s2.46 2.33 3.32 2.6c0 0-1.84 9.97-3.32 14.65h-5.66l5.66-17.25z"
                fill="#A7A9AC"
                mask="url(#db)"
              ></path>
              <path
                d="M146.36 70.86h4.4c1.25-4.16 2.73-11.81 3.1-13.72a18 18 0 0 1-2.38-1.87l-5.12 15.59zm4.84 1.19h-5.66a.6.6 0 0 1-.57-.78l5.67-17.25a.6.6 0 0 1 .97-.25c.98.93 2.59 2.3 3.1 2.47a.6.6 0 0 1 .4.67c-.08.41-1.87 10.05-3.34 14.72a.6.6 0 0 1-.57.42z"
                fill="#3F474E"
                mask="url(#db)"
              ></path>
              <path
                fill="#1D2428"
                mask="url(#db)"
                d="M80.06 94.1l2.21 3h50.4l.9-4.71z"
              ></path>
              <path
                d="M59.4 71.45H47.08a3.27 3.27 0 0 1-3.26-3.26v-.06a3.27 3.27 0 0 1 3.26-3.26H59.4a3.27 3.27 0 0 1 3.26 3.26v.06a3.27 3.27 0 0 1-3.26 3.26"
                fill="#EF5E72"
                mask="url(#db)"
              ></path>
              <path
                d="M47.08 65.51a2.63 2.63 0 0 0-2.62 2.62c0 1.5 1.18 2.68 2.62 2.68H59.4a2.62 2.62 0 0 0 2.62-2.62c0-1.5-1.17-2.68-2.62-2.68H47.08zM59.4 72.1H47.08a3.91 3.91 0 0 1-3.9-3.9 3.92 3.92 0 0 1 3.9-3.96H59.4a3.91 3.91 0 0 1 3.9 3.9 3.92 3.92 0 0 1-3.9 3.96z"
                fill="#3F474E"
                mask="url(#db)"
              ></path>
              <path
                d="M4.92 59.8h44.37V12.55l-23.35 1.07-21.02 6.56s3.8 19.62 0 39.62"
                fill="#FFC200"
                mask="url(#db)"
              ></path>
              <path
                d="M5.51 59.3H48.8V13.08l-22.77 1.04-20.54 6.41c.52 2.99 3.33 20.76.03 38.79m43.78.99H4.92a.5.5 0 0 1-.5-.59c3.76-19.67.05-39.24.01-39.44a.5.5 0 0 1 .34-.57l21.02-6.56a.47.47 0 0 1 .12-.02l23.36-1.06a.47.47 0 0 1 .36.14.5.5 0 0 1 .16.35V59.8a.5.5 0 0 1-.5.5"
                fill="#3F474E"
                mask="url(#db)"
              ></path>
              <path
                d="M4.92 20.39S8.56 12.89 9.1 6.3c0 0 6.76-1.88 10.77-5.71 0 0 17 1.87 31.43 0 0 0 23.4 1.62 37.04 0l40.31 2.66s-.78 5.63-2.62 7.55L51.3 12.93v1.79H27.9s-10-.25-7.95 7.3H5.41l-.5-1.63z"
                fill="#FF9810"
                mask="url(#db)"
              ></path>
              <path
                d="M5.85 21.42H19.2a5.36 5.36 0 0 1 .91-4.47c2.3-2.92 7.58-2.83 7.8-2.82H50.7v-1.2a.6.6 0 0 1 .58-.6l74.48-2.11c1.15-1.4 1.9-4.65 2.2-6.4l-39.6-2.63c-13.23 1.56-35.72.1-37.05 0-13.31 1.73-28.98.25-31.23.03-3.56 3.27-8.92 5.08-10.43 5.54-.59 5.97-3.5 12.41-4.1 13.68l.3.98zm14.1 1.19H5.41a.6.6 0 0 1-.57-.42l-.5-1.63a.6.6 0 0 1 .04-.43c.04-.08 3.6-7.48 4.12-13.87a.6.6 0 0 1 .44-.53C9 5.71 15.6 3.85 19.45.17a.61.61 0 0 1 .48-.16c.17.01 17.1 1.84 31.28 0a.47.47 0 0 1 .12 0c.23 0 23.5 1.6 36.92 0a.44.44 0 0 1 .11 0l40.32 2.66a.6.6 0 0 1 .55.68c-.03.23-.83 5.84-2.78 7.87a.6.6 0 0 1-.42.18L51.9 13.5v1.22a.6.6 0 0 1-.6.6H27.9c-.06 0-4.91-.09-6.84 2.37-.82 1.05-1 2.45-.53 4.17a.6.6 0 0 1-.58.75z"
                fill="#3F474E"
                mask="url(#db)"
              ></path>
              <path
                d="M124.2 12l3.39 28.87s.67 6.44.37 11.31c-.31 4.88-1.42 32-3.75 33.81h-22.8V71.62H89.24V58.37h-3.08v22s-.12 7.5-5.59 7.5H67.91s-6.2-.5-7.87-7c-1.65-6.5-3.68-15.25-3.68-15.25s-1.85-5.82-7.07-5.82H4.92v34.76h7.06s2.77.25 3.08-3.07c.3-3.31 3.68-3.31 3.68-3.31h13.7s3.2.06 3.64 3.38c.43 3.3 3.31 3 3.31 3h89.49s9.34.06 12.35-7.7c3.01-7.74 9.04-23.68 9.04-23.68s2.58-6.12-.31-12.94c-2.89-6.81-17.03-38.93-17.03-38.93s-2.95-5.94-6.39-6.25l-2.33 6.93z"
                fill="#58595B"
                mask="url(#db)"
              ></path>
              <path
                d="M18.74 87.58h13.7c1.3.03 3.83.88 4.23 3.9.34 2.7 2.57 2.5 2.66 2.49h89.55c.15 0 8.98-.08 11.8-7.32 2.97-7.66 8.97-23.52 9.03-23.68.03-.08 2.45-6.01-.3-12.5a6933.17 6933.17 0 0 0-17.02-38.93c-.72-1.45-3.05-5.18-5.45-5.81l-2.13 6.33 3.37 28.74c0 .07.68 6.55.37 11.42-.04.63-.1 1.62-.16 2.89-1.11 21.03-2.22 30.11-3.82 31.35a.6.6 0 0 1-.36.13h-22.8a.6.6 0 0 1-.6-.6V72.21H89.24a.6.6 0 0 1-.6-.6V58.97h-1.88v21.4c-.05 2.81-1.4 8.1-6.19 8.1H67.91c-.11 0-6.7-.61-8.44-7.45-1.65-6.43-3.67-15.17-3.7-15.26-.05-.17-1.77-5.35-6.48-5.35H5.5v33.56h6.47c.28.02 2.24.1 2.48-2.52.29-3.05 2.93-3.86 4.28-3.86m20.36 7.59c-1.21 0-3.25-.71-3.62-3.54a3.15 3.15 0 0 0-3.04-2.86h-13.7c-.11 0-2.84.06-3.1 2.78-.28 3.08-2.54 3.7-3.71 3.6h-7a.6.6 0 0 1-.6-.6V59.8a.6.6 0 0 1 .6-.59h44.37c5.6 0 7.61 6.16 7.63 6.23.04.13 2.06 8.86 3.7 15.28 1.53 6 7.1 6.53 7.34 6.55h12.61c4.82 0 5-6.63 5-6.91v-22a.6.6 0 0 1 .6-.59h3.07c.32 0 .6.27.6.6v12.65h11.57c.32 0 .6.27.6.6V85.4h21.95c1.16-1.51 2.25-11.71 3.24-30.35l.16-2.9c.3-4.78-.36-11.16-.36-11.22l-3.38-28.87a.58.58 0 0 1 .02-.26l2.34-6.94a.61.61 0 0 1 .62-.4c3.73.34 6.74 6.32 6.87 6.58.15.35 14.18 32.23 17.04 38.97 2.95 6.96.41 13.14.3 13.4-.05.14-6.05 16-9.02 23.67-3.11 8-12.71 8.07-12.91 8.07H39.4a2.51 2.51 0 0 1-.3.02m-11.7 4.94c0 .88-.7 1.6-1.57 1.6-.87 0-1.57-.72-1.57-1.6 0-.88.7-1.6 1.57-1.6.87 0 1.57.72 1.57 1.6"
                fill="#3F474E"
                mask="url(#db)"
              ></path>
              <path
                fill="#939598"
                mask="url(#db)"
                d="M86.53 57.8h2.23V11.9h-2.23z"
              ></path>
              <path
                d="M87.03 57.3h1.23V12.4h-1.23v44.9zm1.73 1h-2.23a.5.5 0 0 1-.5-.5V11.9c0-.27.23-.5.5-.5h2.23c.27 0 .5.23.5.5v45.9a.5.5 0 0 1-.5.5z"
                fill="#3F474E"
                mask="url(#db)"
              ></path>
              <path
                d="M129.57 7.57s-1.8 2.87-1.42 6.95c.37 4.08 3.22 24.16 3.22 24.16s.51 5.6 5.05 6.01c4.54.4 10.6.69 10.6.69l-13.44-30.73s-1.97-4.83-4.01-7.08"
                fill="#61F2EE"
                mask="url(#db)"
              ></path>
              <path
                d="M129.97 49.67a1 1 0 0 0-1.05.92l-2.14 30.2c-1.15 9.66-9.31 10.26-9.31 10.26H49.23a1 1 0 0 0 0 2H118c9.91-1.41 10.74-12 10.74-12l2.14-30.31a1 1 0 0 0-.91-1.07"
                fill="#7C7C7C"
                mask="url(#db)"
              ></path>
              <path
                d="M54 61.63a.51.51 0 0 1-.51-.51V13.28a.51.51 0 0 1 1.02 0v47.84a.5.5 0 0 1-.5.5"
                fill="#3F474E"
                mask="url(#db)"
              ></path>
              <path
                d="M144.9 61.15h-5.72a3.6
7 3.67 0 0 1-3.66-3.67v-.06a3.67 3.67 0 0 1 3.67-3.66h5.72a3.67 3.67 0 0 1 3.66 3.66v.06a3.67 3.67 0 0 1-3.66 3.67"
                fill="#FFBC00"
                mask="url(#db)"
              ></path>
              <path
                d="M139.18 54.38a3.04 3.04 0 0 0-3.03 3.04c0 1.73 1.36 3.1 3.03 3.1h5.73a3.04 3.04 0 0 0 3.03-3.04c0-1.73-1.36-3.1-3.03-3.1h-5.73zm5.73 7.4h-5.73a4.3 4.3 0 0 1-4.29-4.3 4.31 4.31 0 0 1 4.3-4.35h5.72a4.3 4.3 0 0 1 4.3 4.29 4.31 4.31 0 0 1-4.3 4.35z"
                fill="#3F474E"
                mask="url(#db)"
              ></path>
              <path
                d="M6.71 17.68s2.52-5.54 2.92-10.92c0 0 6.73-1.97 10.45-5.56 0 0 9.22 1.03 18.04.81 8.82-.22 13.12-.81 13.12-.81s19.36 1 26.61.66C85.1 1.5 88.3 1.2 88.3 1.2l39.64 2.66-.15.93s-1.46-.9-1.76-.06c-.3.84-.43 1.07-.43 1.07L88.33 3.51s-15.18 1-23.17.4c-7.99-.59-13.7-1.34-13.7-1.34s-8.92 1.5-17.58 1.38c-8.67-.13-13.12-1.03-13.12-1.03s-3.44 4.53-8.88 5.75l-1.14 9.01H6.7z"
                fill="#EF8200"
                mask="url(#db)"
              ></path>
              <path
                d="M87.93 8.77V2.84a.98.98 0 0 1 1.96 0v5.93a.99.99 0 0 1-.98.98.98.98 0 0 1-.98-.98M21.3 8.75l-.94-5.82a1 1 0 0 1 .81-1.15.99.99 0 0 1 1.13.83l.94 5.82a1 1 0 0 1-.8 1.15.99.99 0 0 1-1.14-.83"
                fill="#3F474E"
                opacity=".3"
                mask="url(#db)"
              ></path>
              <path
                d="M20.55 8.88l-.94-5.82a1 1 0 0 1 .81-1.15.99.99 0 0 1 1.13.82l.94 5.82a1 1 0 0 1-.8 1.15.99.99 0 0 1-1.14-.82"
                fill="#EF8200"
                mask="url(#db)"
              ></path>
              <path
                d="M15.9 12.22l-4.5-3.71a1.01 1.01 0 0 1-.14-1.4V7.1a.97.97 0 0 1 1.38-.14l4.5 3.71a1 1 0 0 1 .14 1.4.97.97 0 0 1-1.38.15"
                fill="#3F474E"
                opacity=".3"
                mask="url(#db)"
              ></path>
              <path
                d="M15.47 12.76l-4.5-3.71a1.01 1.01 0 0 1-.14-1.41.97.97 0 0 1 1.38-.15l4.5 3.72a1 1 0 0 1 .14 1.4.97.97 0 0 1-1.38.15"
                fill="#EF8200"
                mask="url(#db)"
              ></path>
              <path
                d="M32.18 5.63c-2.25 0-5.01-.22-8.24-.66l-.27-.03a.5.5 0 0 1-.46-.52.5.5 0 0 1 .5-.48l.36.05c3.77.5 6.9.71 9.28.62h.02a.5.5 0 0 1 .02 1l-1.2.01m3.69 0H35a.5.5 0 0 1 0-.99h.87a.5.5 0 0 1 0 1"
                fill="#FFF"
                mask="url(#db)"
              ></path>
              <path
                d="M5.94 22.6h13.83s.8.16.74-.59c-.06-.75-.92-3.14 1.04-4.87 1.97-1.73 5.97-1.85 6.76-1.85H48.7v3.44H28.54s-5.2-.25-4.4 3.28c.8 3.53-2.06 3.85-2.06 3.85H6.4l-.46-3.25z"
                fill="#FFB000"
                mask="url(#db)"
              ></path>
              <path
                d="M124.84 9.51h-97.1c-10.2-.47-11.9 6.34-12.07 7.17H4.79a1.2 1.2 0 0 0-1.19 1.2c0 .67.54 1.22 1.2 1.22h12.04c.59 0 1.06-.46 1.15-1.03l.05.02c-.22-5.54 7.41-6.11 9.76-6.16h97.04a1.2 1.2 0 0 0 1.19-1.21c0-.66-.54-1.2-1.19-1.2"
                fill="#3F474E"
                opacity=".2"
                mask="url(#db)"
              ></path>
              <path
                d="M124.84 10.51h-97.1c-10.2-.47-11.9 6.34-12.07 7.17H4.79a1.2 1.2 0 0 0-1.19 1.2c0 .67.54 1.22 1.2 1.22h12.04c.59 0 1.06-.46 1.15-1.03l.05.02c-.22-5.54 7.41-6.11 9.76-6.16h97.04a1.2 1.2 0 0 0 1.19-1.21c0-.66-.54-1.2-1.19-1.2"
                fill="#3F474E"
                mask="url(#db)"
              ></path>
              <path
                d="M50.67 8.7V2.9c0-.57.47-1.04 1.04-1.04h.1c.58 0 1.05.47 1.05 1.04v5.8c0 .58-.47 1.05-1.04 1.05h-.1a1.05 1.05 0 0 1-1.05-1.05"
                fill="#3F474E"
                opacity=".3"
                mask="url(#db)"
              ></path>
              <path
                d="M50.07 8.77V2.84a.98.98 0 0 1 1.96 0v5.93a.99.99 0 0 1-.98.98.99.99 0 0 1-.98-.98m37.12 0V2.84c0-.54.44-.98.98-.98s.99.44.99.98v5.93a.99.99 0 0 1-.99.98.98.98 0 0 1-.98-.98"
                fill="#EF8200"
                mask="url(#db)"
              ></path>
              <path
                fill="#FFA300"
                mask="url(#db)"
                d="M47.59 59.14h1.1v-43h-1.1z"
              ></path>
              <path
                d="M40.2 54.36H7.97a.66.66 0 0 1-.65-.66v-.12c0-.36.3-.66.65-.66H40.2c.36 0 .66.3.66.66v.12a.66.66 0 0 1-.66.66"
                fill="#FFB000"
                mask="url(#db)"
              ></path>
              <path
                d="M45.11 54.36H42.4a.71.71 0 0 1-.72-.72c0-.4.32-.72.72-.72h2.72c.4 0 .72.32.72.71v.01a.71.71 0 0 1-.72.72"
                fill="#FFA300"
                mask="url(#db)"
              ></path>
              <g mask="url(#db)" fill="#3F474E" opacity=".3">
                <path d="M10.98 56.7a.75.75 0 0 1-.74.76.75.75 0 0 1-.75-.76.75.75 0 0 1 .75-.76.75.75 0 0 1 .74.76m17.37 0a.75.75 0 0 1-.74.76.75.75 0 0 1-.74-.76.75.75 0 0 1 .74-.76.75.75 0 0 1 .74.76m-11.45 0a.75.75 0 0 1-.74.76.75.75 0 0 1-.75-.76.75.75 0 0 1 .75-.76.75.75 0 0 1 .74.76m5.8-.01a.75.75 0 0 1-.74.75.75.75 0 0 1-.74-.75.75.75 0 0 1 .75-.76.75.75 0 0 1 .74.76m11.48.01a.75.75 0 0 1-.74.76.75.75 0 0 1-.74-.76.75.75 0 0 1 .74-.76.75.75 0 0 1 .74.76m5.82 0a.75.75 0 0 1-.74.76.75.75 0 0 1-.74-.76.75.75 0 0 1 .74-.76.75.75 0 0 1 .74.76m5.82 0a.75.75 0 0 1-.75.76.75.75 0 0 1-.74-.76.75.75 0 0 1 .74-.76.75.75 0 0 1 .75.76"></path>
              </g>
              <path
                d="M10.38 56.7c0 .41-.33.75-.74.75a.74.74 0 0 1-.74-.75c0-.41.33-.75.74-.75.4 0 .74.34.74.75m17.4 0c0 .41-.34.75-.75.75a.74.74 0 0 1-.73-.75c0-.41.33-.75.73-.75.41 0 .74.34.74.75m-11.52 0c0 .41-.33.75-.74.75a.74.74 0 0 1-.74-.75c0-.41.33-.75.74-.75.4 0 .74.34.74.75m5.76 0c0 .41-.33.75-.74.75a.74.74 0 0 1-.73-.75c0-.41.33-.75.73-.75.41 0 .74.34.74.75m11.58 0c0 .41-.33.75-.74.75a.74.74 0 0 1-.73-.75c0-.41.33-.75.73-.75.41 0 .74.34.74.75m5.76 0c0 .41-.33.75-.74.75a.74.74 0 0 1-.73-.75c0-.41.33-.75.73-.75.41 0 .74.34.74.75m5.82 0c0 .41-.33.75-.74.75a.74.74 0 0 1-.74-.75c0-.41.33-.75.74-.75.4 0 .74.34.74.75"
                fill="#FFF"
                mask="url(#db)"
              ></path>
              <path
                d="M6.9 67.58a1.4 1.4 0 0 1-1.39-1.4v-.02a1.4 1.4 0 0 1 1.4-1.4h41.5c.77 0 1.4.63 1.4 1.4v.02c0 .77-.63 1.4-1.4 1.4H6.91zm43.53 5.28H6.93a1.41 1.41 0 0 1-1.42-1.4 1.41 1.41 0 0 1 1.41-1.41h43.51a1.41 1.41 0 0 1 1.4 1.4 1.41 1.41 0 0 1-1.4 1.4m1.4 5.51H6.93a1.41 1.41 0 0 1-1.4-1.4 1.41 1.41 0 0 1 1.4-1.41h44.91a1.41 1.41 0 0 1 1.41 1.4 1.41 1.41 0 0 1-1.4 1.4m1.52 5.54H6.96a1.45 1.45 0 0 1-1.45-1.44v-.09a1.45 1.45 0 0 1 1.45-1.44h46.4a1.45 1.45 0 0 1 1.44 1.45v.08a1.45 1.45 0 0 1-1.44 1.44"
                fill="#3F474E"
                opacity=".6"
                mask="url(#db)"
              ></path>
              <path
                d="M48.41 66.58H6.91a1.4 1.4 0 0 1-1.4-1.4v-.02a1.4 1.4 0 0 1 1.4-1.4h41.5c.77 0 1.4.63 1.4 1.4v.02c0 .77-.63 1.4-1.4 1.4"
                fill="#707070"
                mask="url(#db)"
              ></path>
              <path
                d="M94.87 76.12h-5.7a1.01 1.01 0 0 1-1-1.01 1.01 1.01 0 0 1 1-1h5.7a1.01 1.01 0 0 1 1 1 1.01 1.01 0 0 1-1 1m0 3.26h-5.7a1.01 1.01 0 0 1-1-1.01 1.01 1.01 0 0 1 1-1h5.7a1.01 1.01 0 0 1 1 1 1.01 1.01 0 0 1-1 1m0 3.18h-5.7a1.01 1.01 0 0 1-1-1 1.01 1.01 0 0 1 1-1.01h5.7a1.01 1.01 0 0 1 1 1 1.01 1.01 0 0 1-1 1.01"
                fill="#7C7C7C"
                mask="url(#db)"
              ></path>
              <path
                d="M50.44 71.92H6.91a1.4 1.4 0 0 1-1.4-1.4v-.02a1.4 1.4 0 0 1 1.4-1.4h43.53c.77 0 1.4.64 1.4 1.4v.03a1.4 1.4 0 0 1-1.4 1.39m1.4 5.34H6.92a1.4 1.4 0 0 1-1.4-1.39v-.02a1.4 1.4 0 0 1 1.4-1.4h44.94c.76 0 1.4.63 1.4 1.4v.02c0 .77-.64 1.4-1.4 1.4m1.56 5.64H6.91a1.4 1.4 0 0 1-1.4-1.4v-.02c0-.77.63-1.4 1.4-1.4h46.5c.77 0 1.4.63 1.4 1.4v.02c0 .77-.63 1.4-1.4 1.4"
                fill="#707070"
                mask="url(#db)"
              ></path>
              <path
                d="M137.42 97.02h2.38s3.41-8.66 8.16-10l20.42-2.08s-1-2.08-2.13-3.2l-18.7 3.28s-2.88.46-4.96 3.5c-2.09 3.04-5.17 8.5-5.17 8.5"
                fill="#7C7C7C"
                mask="url(#db)"
              ></path>
              <path
                d="M172.53 73.59a.78.78 0 0 1-.25-1.52l3.03-1.03a.78.78 0 0 1 .5 1.48l-3.03 1.03a.79.79 0 0 1-.25.04m9.92-3.29a.78.78 0 0 1-.26-1.52l3.92-1.39a.78.78 0 0 1 1 .48.78.78 0 0 1-.48 1l-3.92 1.38a.77.77 0 0 1-.26.05"
                fill="#FBD200"
                mask="url(#db)"
              ></path>
              <path
                d="M177.88 71.86a.78.78 0 0 1-.25-1.52l2.14-.73a.78.78 0 1 1 .5 1.48l-2.14.73a.79.79 0 0 1-.25.04m-.74 5.94h-3.88a.78.78 0 1 1 0-1.57h3.88a.78.78 0 1 1 0 1.57m11.04 0h-1.94a.78.78 0 1 1 0-1.57h1.94a.78.78 0 1 1 0 1.57"
                fill="#FCA11D"
                mask="url(#db)"
              ></path>
              <path
                d="M183.9 77.8h-3.88a.78.78 0 1 1 0-1.57h3.88a.78.78 0 1 1 0 1.57m-8.52 5.15a.78.78 0 0 1-.25-.04l-2.85-.98a.78.78 0 1 1 .5-1.48l2.86.97a.78.78 0 0 1-.26 1.53"
                fill="#FBD200"
                mask="url(#db)"
              ></path>
              <path
                d="M181.14 84.94a.78.78 0 0 1-.25-.04l-2.86-.98a.78.78 0 1 1 .51-1.48l2.85.98a.78.78 0 0 1-.25 1.52"
                fill="#FCA11D"
                mask="url(#db)"
              ></path>
              <path
                d="M185.26 86.56a.78.78 0 0 1-.32-.07l-1.88-.84a.78.78 0 0 1 .65-1.43l1.87.84a.78.78 0 0 1-.32 1.5"
                fill="#FBD200"
                mask="url(#db)"
              ></path>
              <path
                d="M8.9 90.17a.6.6 0 0 1-.56-.8c2.7-7.17 4.3-10.08 17.26-10.08 11.88 0 14.1 2.57 16.96 9.36a.6.6 0 0 1-1.1.46c-2.52-5.98-4.14-8.63-15.87-8.63-12.64 0-13.66 2.72-16.13 9.3a.6.6 0 0 1-.56.39"
                fill="#3F474E"
                mask="url(#db)"
              ></path>
              <path
                d="M135.52 19.09l2.7 6.16L131.95 41s-.73-.44-1.62-9.69l5.19-12.21zm3.62 8.28l-6.1 15.52s.97 1.22 2.02 1.49l5.4-13.99-1.32-3.02z"
                fill="#A4FFFA"
                mask="url(#db)"
              ></path>
              <path
                d="M135.52 57.48v-.06a3.67 3.67 0 0 1 3.67-3.66h5.72a3.67 3.67 0 0 1 3.66 3.66v.06"
                fill="#FF9810"
                mask="url(#db)"
              ></path>
              <path
                d="M148.57 58.05c-.32 0-.6-.24-.6-.57a3.09 3.09 0 0 0-3.06-3.13h-5.73a3.07 3.07 0 0 0-3.06 3.07c0 .33-.27.62-.6.62-.33 0-.6-.23-.6-.56v-.06a4.26 4.26 0 0 1 4.26-4.26h5.73a4.26 4.26 0 0 1 4.26 4.26c0 .33-.27.62-.6.62"
                fill="#3F474E"
                mask="url(#db)"
              ></path>
              <path
                d="M163.64 81.68a.5.5 0 0 1-.39-.18c-.68-.84-2.7-1.9-3.42-2.25a.5.5 0 1 1 .43-.9c.11.06 2.8 1.33 3.76 2.52a.5.5 0 0 1-.38.81m1.5 1.74a.5.5 0 0 1-.38-.18l-.44-.53a.5.5 0 0 1 .76-.63l.44.53a.5.5 0 0 1-.38.82"
                fill="#FFF"
                mask="url(#db)"
              ></path>
              <path
                d="M97.22 72.3v18.47h20.56s4.28.12 6.96-4.16h-23.95V72.3h-3.57z"
                fill="#3F474E"
                mask="url(#db)"
              ></path>
              <path
                d="M109.27 71.6l-1.9 17.24s-.07 1.13-.99 1.13c-.92 0-.67-1.13-.67-1.13l1.76-17.25h1.8z"
                fill="#7C7C7C"
                mask="url(#db)"
              ></path>
              <path
                d="M89.24 71.62h23.72s0-5.8-5.41-5.8H89.24v5.8z"
                fill="#EF5E72"
                mask="url(#db)"
              ></path>
              <path
                d="M89.88 70.97h22.39c-.18-1.38-1-4.5-4.72-4.5H89.88v4.5zm23.08 1.29H89.24a.64.64 0 0 1-.65-.64v-5.8c0-.35.3-.63.65-.63h18.31c4.79 0 6.05 4.2 6.05 6.43a.64.64 0 0 1-.64.64z"
                fill="#3F474E"
                mask="url(#db)"
              ></path>
              <path
                d="M100.09 70.27h-9.3a.5.5 0 0 1 0-1h9.3a.5.5 0 0 1 0 1m2.75 0h-1a.5.5 0 0 1 0-1h1a.5.5 0 0 1 0 1"
                fill="#FFF"
                mask="url(#db)"
              ></path>
              <path
                d="M145.84 59.14a1.18 1.18 0 0 1-1.17-1.18V56.8c0-.65.53-1.17 1.17-1.17s1.18.52 1.18 1.17v1.17c0 .65-.53 1.18-1.18 1.18"
                fill="#EF8200"
                mask="url(#db)"
              ></path>
              <path
                d="M20.24 112.89a.52.52 0 0 1-.15-.03c-4.94-1.5-6.92-6.36-7-6.57a.5.5 0 1 1 .92-.37c.02.05 1.9 4.63 6.37 6a.5.5 0 0 1-.14.96m3.1 1.01h-.03a4.5 4.5 0 0 1-1.43-.38.5.5 0 0 1 .42-.9s.55.26 1.07.3a.5.5 0 0 1-.03.98"
                fill="#FFF"
                mask="url(#db)"
              ></path>
              <path
                d="M8.9 91.17a.6.6 0 0 1-.56-.8c2.7-7.17 4.3-10.08 17.26-10.08 11.88 0 14.1 2.57 16.96 9.36a.6.6 0 0 1-1.1.47c-2.52-6-4.14-8.64-15.86-8.64-12.65 0-13.67 2.72-16.14 9.3a.6.6 0 0 1-.56.39"
                fill="#3F474E"
                opacity=".5"
                mask="url(#db)"
              ></path>
              <path
                d="M149.41 51.05h-10.66a1.2 1.2 0 0 1-1.2-1.2c0-.65.54-1.19 1.2-1.19h10.66c.66 0 1.2.54 1.2 1.2a1.2 1.2 0 0 1-1.2 1.2"
                fill="#7C7C7C"
                mask="url(#db)"
              ></path>
              <path
                fill="#EF5E72"
                mask="url(#db)"
                d="M90.93 28
.02h4.94v-3.5h-4.94z"
              ></path>
              <path
                d="M94.49 30.04a1.08 1.08 0 1 1-2.17 0 1.08 1.08 0 0 1 2.17 0"
                fill="#FF9810"
                mask="url(#db)"
              ></path>
              <path
                fill="#FFF"
                mask="url(#db)"
                d="M8.9 67.58h11.34v-5.63H8.9z"
              ></path>
            </g>
          </svg>
          <use href="/icons/seat-selector-icons.svg#icon-vehicle-3"></use>
        </svg>