<svg id="Layer_5" enable-background="new 0 0 64 64" height="512" viewBox="0 0 64 64" width="512" xmlns="http://www.w3.org/2000/svg"><g><path d="m59 56.879c2.279-.558 4-2.981 4-5.879s-1.721-5.321-4-5.879v-32.121h-2v-4h-4v-4h-2.025l.025-3.994-2-.013-.025 4.007h-1.975v4h-4v4h-2v8.678c-2.168.589-4.198 1.544-6 2.82v-9.498h4v-6h-5v-4h-2.025l.025-3.994-2-.013-.025 4.007h-1.975v4h-5v6h4v19.219l-4-1v-8.219h2v-2h-6v-6h-2v6h-2v-2h-2v2h-2v-4h-2v4h-6v2h2v31.026c-1.207.913-2 2.347-2 3.974 0 .338.045.671.112 1h-2.112v2h62v-2h-4zm-30-1.449c-1.429-.619-3.148-.541-4.498.245-1.315-1.673-3.337-2.675-5.502-2.675-1.478 0-2.856.465-4 1.261v-20.98l14 3.5zm.754-20.523.111-.277c2.208-6.638 8.215-11.198 15.135-11.601v34.666c-1.113-.532-2.366-.789-3.661-.663-1.139-2.443-3.589-4.032-6.339-4.032-1.457 0-2.844.463-4 1.27v-19.051zm19.246 16.093v3.754c-1.161-.552-2-2.018-2-3.754 0-2.206 1.346-4 3-4s3 1.794 3 4c0 1.736-.839 3.202-2 3.754v-3.754zm-2 8.135v-3.347c.582.527 1.26.909 2 1.09v4.122h-.699c-.334-.699-.773-1.324-1.301-1.865zm4-2.256c1.222-.299 2.278-1.138 3-2.294.722 1.157 1.778 1.995 3 2.294v4.121h-6zm10-5.879c0 1.736-.839 3.202-2 3.754v-3.754h-2v3.754c-1.161-.552-2-2.018-2-3.754 0-2.206 1.346-4 3-4s3 1.794 3 4zm-12-44h2v2h-2zm-4 4h2 6 2v2h-10zm-2 4h14v30.121c-1.222.299-2.278 1.138-3 2.294-.913-1.462-2.364-2.415-4-2.415-1.126 0-2.163.455-3 1.211v-25.211h-1c-1.017 0-2.019.081-3 .237zm-13-8h2v2h-2zm-5 4h12v2h-12zm8 4v11.139c-1.625 1.522-2.987 3.333-4 5.376v-16.515zm-26 10h14v7.719l-8-2v25.694c-.123.208-.248.415-.351.637-.21-.029-.424-.045-.646-.047-.938-1.249-2.42-2.003-4.003-2.003-.342 0-.677.035-1 .101zm-2 35c0-1.654 1.346-3 3-3 1.081 0 2.083.585 2.615 1.527l.31.549 1.075-.076c.294 0 .604.057.949.173l.971.326.303-.979c.651-2.105 2.571-3.52 4.777-3.52 1.819 0 3.497.991 4.378 2.587l.625 1.132.938-.89c1.128-1.068 2.988-1.068 4.116 0l.938.89.625-1.132c.883-1.596 2.561-2.587 4.38-2.587 2.171 0 4.081 1.388 4.753 3.454l.281.863.887-.196c1.977-.439 3.916.376 5.056 1.879h-40.783c-.114-.322-.194-.655-.194-1z"/><path d="m17 27h2v2h-2z"/><path d="m9 27h2v2h-2z"/><path d="m13 27h2v2h-2z"/><path d="m9 43h2v2h-2z"/><path d="m9 39h2v2h-2z"/><path d="m9 35h2v2h-2z"/><path d="m9 47h2v2h-2z"/><path d="m9 31h2v2h-2z"/><path d="m9 51h2v2h-2z"/><path d="m53 17h2v2h-2z"/><path d="m49 17h2v2h-2z"/><path d="m45 17h2v2h-2z"/><path d="m17 49h2v2h-2z"/><path d="m17 45h2v2h-2z"/><path d="m17 41h2v2h-2z"/><path d="m17 37h2v2h-2z"/><path d="m21 37h2v2h-2z"/><path d="m21 41h2v2h-2z"/><path d="m21 49h2v2h-2z"/><path d="m21 45h2v2h-2z"/><path d="m25 49h2v2h-2z"/><path d="m25 41h2v2h-2z"/><path d="m25 37h2v2h-2z"/><path d="m25 45h2v2h-2z"/><path d="m37 49h2v2h-2z"/><path d="m33 49h2v2h-2z"/><path d="m41 49h2v2h-2z"/><path d="m37 45h2v2h-2z"/><path d="m33 45h2v2h-2z"/><path d="m41 45h2v2h-2z"/><path d="m41 41h2v2h-2z"/><path d="m33 41h2v2h-2z"/><path d="m37 41h2v2h-2z"/><path d="m33 37h2v2h-2z"/><path d="m41 37h2v2h-2z"/><path d="m37 37h2v2h-2z"/><path d="m41 33h2v2h-2z"/><path d="m37 33h2v2h-2z"/><path d="m33 33h2v2h-2z"/><path d="m37 29h2v2h-2z"/><path d="m41 29h2v2h-2z"/><path d="m49 21h2v2h-2z"/><path d="m53 21h2v2h-2z"/><path d="m53 25h2v2h-2z"/><path d="m49 25h2v2h-2z"/><path d="m49 29h2v2h-2z"/><path d="m53 29h2v2h-2z"/><path d="m53 33h2v2h-2z"/><path d="m49 33h2v2h-2z"/><path d="m49 37h2v2h-2z"/><path d="m53 37h2v2h-2z"/><path d="m53 41h2v2h-2z"/><path d="m49 41h2v2h-2z"/></g></svg>