<svg height="512" viewBox="0 0 60 60" width="512" xmlns="http://www.w3.org/2000/svg"><g id="Page-1" fill="none" fill-rule="evenodd"><g id="017---CN-Tower" fill="rgb(0,0,0)" fill-rule="nonzero" transform="translate(0 -1)"><path id="Shape" d="m58 37v-2c0-1.1045695-.8954305-2-2-2v-2c0-1.1045695-.8954305-2-2-2h-6v-2.382c.0034625-.7570187-.4228994-1.4504382-1.1-1.789l-6-3c-.6204662-.3126559-1.3587395-.2808963-1.9500631.0838891-.5913235.3647855-.9509596 1.0103225-.9499369 1.7051109v17.382h-2v-3c0-1.1045695-.8954305-2-2-2h-4.1c-.243-3.728-.476-7.832-.681-12.268.4715902-.269499.8126034-.7199687.944-1.247l.629-2.514c1.814998-.1378721 3.2173335-1.6507729 3.2173335-3.471s-1.4023355-3.3331279-3.2173335-3.471l-.629-2.514c-.1532863-.6081175-.5842675-1.10839652-1.163-1.35v-2.165c.5522847 0 1-.44771525 1-1s-.4477153-1-1-1v-.5c.0033847-.9289377-.3645594-1.82071613-1.022-2.477-1.0009709-1.00350782-2.5083542-1.30424372-3.8177798-.76167981-1.3094255.5425639-2.1623505 1.82129975-2.1602202 3.23867981v.5c-.5522847 0-1 .44771525-1 1s.4477153 1 1 1v2.165c-.5771962.24261485-1.0065538.74272944-1.159 1.35l-.629 2.514c-1.814998.1378721-3.2173335 1.6507729-3.2173335 3.471s1.4023355 3.3331279 3.2173335 3.471l.629 2.514c.1313966.5270313.4724098.977501.944 1.247-.117 2.532-.243 4.961-.375 7.268h-10.41v-1c0-1.1045695-.8954305-2-2-2h-4c-1.1045695 0-2 .8954305-2 2v2c-1.1045695 0-2 .8954305-2 2v2.278c-.61675126.3544126-.997855 1.0106732-1 1.722v22c0 .5522847.44771525 1 1 1h58c.5522847 0 1-.4477153 1-1v-21c0-1.1045695-.8954305-2-2-2zm-10-2h8v2h-8zm6-4v2h-6v-2zm-16 16h-3c-.5522847 0-1 .4477153-1 1s.4477153 1 1 1h3v2h-3c-.5522847 0-1 .4477153-1 1s.4477153 1 1 1h3v2h-3c-.5522847 0-1 .4477153-1 1s.4477153 1 1 1h3v2h-6.112c-.238-2.045-.853-7.634-1.5-16h7.612zm-9.781-25h-5.439l-.5-2h6.439zm-4.444 2h3.45c.318 6.841.7 12.9 1.085 18v.012c.654 8.707 1.29 14.642 1.564 16.988h-8.748c.428-3.72 1.788-16.467 2.649-35zm10.225 14v3h-3.758c-.0713333-.968-.1423333-1.968-.213-3zm-6-25h-5.719l.5-2h5.439l.5 2zm-4-8.5c0-.82842712.6715729-1.5 1.5-1.5s1.5.67157288 1.5 1.5v4.5h-3zm-5 12c0-.8284271.6715729-1.5 1.5-1.5h10c.8284271 0 1.5.6715729 1.5 1.5s-.6715729 1.5-1.5 1.5h-10c-.8284271 0-1.5-.6715729-1.5-1.5zm-14 13.5h4v2h-4zm-2 4h6v2h-6zm-1 4h7v21h-7zm9-1v-4h10.293c-.84 13.905-1.858 23.223-2.181 26h-8.112zm29 18h3c.5522847 0 1-.4477153 1-1s-.4477153-1-1-1h-3v-2h3c.5522847 0 1-.4477153 1-1s-.4477153-1-1-1h-3v-2h3c.5522847 0 1-.4477153 1-1s-.4477153-1-1-1h-3v-2h3c.5522847 0 1-.4477153 1-1s-.4477153-1-1-1h-3v-2h3c.5522847 0 1-.4477153 1-1s-.4477153-1-1-1h-3v-2h3c.5522847 0 1-.4477153 1-1s-.4477153-1-1-1h-3v-2h3c.5522847 0 1-.4477153 1-1s-.4477153-1-1-1h-3v-5.382l6 3v32.382h-6zm18 4h-10v-20h10z"/><path id="Shape" d="m55 42h-4c-.5522847 0-1 .4477153-1 1s.4477153 1 1 1h4c.5522847 0 1-.4477153 1-1s-.4477153-1-1-1z"/><path id="Shape" d="m55 46h-4c-.5522847 0-1 .4477153-1 1s.4477153 1 1 1h4c.5522847 0 1-.4477153 1-1s-.4477153-1-1-1z"/><path id="Shape" d="m55 50h-4c-.5522847 0-1 .4477153-1 1s.4477153 1 1 1h4c.5522847 0 1-.4477153 1-1s-.4477153-1-1-1z"/><path id="Shape" d="m55 54h-4c-.5522847 0-1 .4477153-1 1s.4477153 1 1 1h4c.5522847 0 1-.4477153 1-1s-.4477153-1-1-1z"/><path id="Shape" d="m6 41h-1c-.55228475 0-1 .4477153-1 1s.44771525 1 1 1h1c.55228475 0 1-.4477153 1-1s-.44771525-1-1-1z"/><path id="Shape" d="m6 45h-1c-.55228475 0-1 .4477153-1 1s.44771525 1 1 1h1c.55228475 0 1-.4477153 1-1s-.44771525-1-1-1z"/><path id="Shape" d="m6 49h-1c-.55228475 0-1 .4477153-1 1s.44771525 1 1 1h1c.55228475 0 1-.4477153 1-1s-.44771525-1-1-1z"/><path id="Shape" d="m6 53h-1c-.55228475 0-1 .4477153-1 1s.44771525 1 1 1h1c.55228475 0 1-.4477153 1-1s-.44771525-1-1-1z"/><path id="Shape" d="m14 37h2c.5522847 0 1-.4477153 1-1s-.4477153-1-1-1h-2c-.5522847 0-1 .4477153-1 1s.4477153 1 1 1z"/><path id="Shape" d="m16 39h-2c-.5522847 0-1 .4477153-1 1s.4477153 1 1 1h2c.5522847 0 1-.4477153 1-1s-.4477153-1-1-1z"/><path id="Shape" d="m16 43h-2c-.5522847 0-1 .4477153-1 1s.4477153 1 1 1h2c.5522847 0 1-.4477153 1-1s-.4477153-1-1-1z"/><path id="Shape" d="m16 47h-2c-.5522847 0-1 .4477153-1 1s.4477153 1 1 1h2c.5522847 0 1-.4477153 1-1s-.4477153-1-1-1z"/><path id="Shape" d="m16 51h-2c-.5522847 0-1 .4477153-1 1s.4477153 1 1 1h2c.5522847 0 1-.4477153 1-1s-.4477153-1-1-1z"/><path id="Shape" d="m16 55h-2c-.5522847 0-1 .4477153-1 1s.4477153 1 1 1h2c.5522847 0 1-.4477153 1-1s-.4477153-1-1-1z"/></g></g></svg>