<svg height="512" viewBox="0 0 60 60" width="512" xmlns="http://www.w3.org/2000/svg"><path id="Shape" d="m1 60h58c.5522847 0 1-.4477153 1-1v-28c.0043858-1.0825582-.3469564-2.1365849-1-3v-14c.5522847 0 1-.4477153 1-1-.0059555-3.46554962-2.0011946-6.61981658-5.13-8.11-.4820834-1.53649202-1.2828479-2.95401554-2.35-4.16-.3796661-.43050087-.9259988-.67712434-1.5-.67712434s-1.1203339.24662347-1.5.67712434c-1.0671521 1.20598446-1.8679166 2.62350798-2.35 4.16-3.1443925 1.47865825-5.1567105 4.63531184-5.17 8.11 0 .5522847.4477153 1 1 1v14c-.4443162.5918453-.7517102 1.2749429-.9 2h-2.1v-23c1.1045695 0 2-.8954305 2-2 0-1.86.17-2.86-1.67-4.48-.7581689-.67508438-1.9018311-.67508438-2.66 0-1.83 1.61-1.67 2.6-1.67 4.48 0 1.1045695.8954305 2 2 2v2h-2.22c-.42755-1.19998107-1.0602879-2.31657742-1.87-3.3-.3456469-.42350504-.8633481-.66921766-1.41-.66921766s-1.0643531.24571262-1.41.66921766c-.4230629.59714324-.7880573 1.23337199-1.09 1.9-.3019427-.66662801-.6669371-1.30285676-1.09-1.9-.3456469-.42350504-.8633481-.66921766-1.41-.66921766s-1.0643531.24571262-1.41.66921766c-.8097121.98342258-1.44245 2.10001893-1.87 3.3h-2.22v-2c1.1045695 0 2-.8954305 2-2 0-1.86.17-2.86-1.67-4.48-.7581689-.67508438-1.9018311-.67508438-2.66 0-1.83 1.61-1.67 2.6-1.67 4.48 0 1.1045695.8954305 2 2 2v23h-2.1c-.1482898-.7250571-.4556838-1.4081547-.9-2v-14c.5522847 0 1-.4477153 1-1-.0059555-3.46554962-2.0011946-6.61981658-5.13-8.11-.4820834-1.53649202-1.2828479-2.95401554-2.35-4.16-.3796661-.43050087-.92599883-.67712434-1.5-.67712434s-1.12033392.24662347-1.5.67712434c-1.08150157 1.2023283-1.89604668 2.62011393-2.39 4.16-3.12880536 1.49018342-5.12404451 4.64445038-5.13 8.11 0 .5522847.44771525 1 1 1v14c-.6530436.8634151-1.00438582 1.9174418-1 3v28c0 .5522847.44771525 1 1 1zm1-28h14v26h-2v-12.82c0-2.59-.93-4.28-3.67-6.68-.75816885-.6750844-1.90183115-.6750844-2.66 0-2.74 2.4-3.67 4.09-3.67 6.68v12.82h-2zm3-4.0000004v2.0000004h-2.83c.42397528-1.1991837 1.55807381-2.0006668 2.83-2.0000004zm6-13.9999996v6.56c-1.22807006-.7492691-2.77192994-.7492691-4 0v-6.56zm4.83 16h-2.83v-2.0000004c1.2719262-.0006664 2.4060247.8008167 2.83 2.0000004zm-8.83-6c0-1.1045695.8954305-2 2-2s2 .8954305 2 2v6h-4zm-1 34v-12.82c0-1.73.45-3 3-5.17 2.54 2.22 3 3.44 3 5.17v12.82zm16-11 1.15-2h13.7c.11 0 0-.2 1.07 2zm2 11v-9h12v9zm23-30.0000004v2.0000004h-2.83c.4239753-1.1991837 1.5580738-2.0006668 2.83-2.0000004zm6-13.9999996v6.56c-1.2280701-.7492691-2.7719299-.7492691-4 0v-6.56zm4.83 16h-2.83v-2.0000004c1.2719262-.0006664 2.4060247.8008167 2.83 2.0000004zm-8.83-6c0-1.1045695.8954305-2 2-2s2 .8954305 2 2v6h-4zm-1 34v-12.82c0-1.73.45-3 3-5.17 2.54 2.22 3 3.44 3 5.17v12.82zm10 0h-2v-12.82c0-2.59-.93-4.28-3.67-6.68-.7581689-.6750844-1.9018311-.6750844-2.66 0-2.74 2.4-3.67 4.09-3.67 6.68v12.82h-2v-26h14zm-1-31.58c-.6301043-.2778734-1.3113461-.4209341-2-.42v-12h2zm-6-24.42c.5494458.65691576 1.0318443 1.3671136 1.44 2.12-.9432617-.16001786-1.9067383-.16001786-2.85 0 .4040084-.74840159.8759965-1.45805741 1.41-2.12zm0 4c3.4803793-.00089333 6.4328031 2.55531772 6.93 6h-13.86c.4971969-3.44468228 3.4496207-6.00089333 6.93-6zm-4 8v12c-.6886539-.0009341-1.3698957.1421266-2 .42v-12.42zm-5 44h-4v-9c.6943042-.0038075 1.3369569-.3674343 1.6977697-.9606349.3608127-.5932006.3881539-1.3310892.0722303-1.9493651l-1.08-2c-.3636086-.6765648-1.0719421-1.0961754-1.84-1.09h-13.7c-.7659102-.0081499-1.4737177.4073023-1.84 1.08l-1.08 2c-.320727.6190788-.2959023 1.3605029.0655164 1.9567417.3614188.5962389 1.0072604.9612247 1.7044836.9632583v9h-4v-26h24zm-20-37.44v-2.56h16v2.56c-1.6439342-.980929-3.7554979-.6346326-5 .82-.7593322-.8610017-1.8519977-1.3542487-3-1.3542487s-2.2406678.493247-3 1.3542487c-1.2401678-1.4623108-3.3577206-1.8095894-5-.82zm6 3.44c0-1.1045695.8954305-2 2-2s2 .8954305 2 2v6h-4zm6 6v-6c0-1.1045695.8954305-2 2-2s2 .8954305 2 2v6zm5-28c1.18 1 1 1.32 1 3h-2c0-1.71-.16-2 1-3zm-6.49 5.15c.4446662.57440051.8268259 1.19457194 1.14 1.85h-2.11c.2905733-.63329642.6143567-1.25082135.97-1.85zm-5 0c.3658531.59852637.6996567 1.21606294 1 1.85h-2.16c.3131741-.65542806.6953338-1.27559949 1.14-1.85zm10.49 3.85v5h-16v-5zm-17-9c1.18 1 1 1.32 1 3h-2c0-1.71-.16-2 1-3zm1 22c0-1.1045695.8954305-2 2-2s2 .8954305 2 2v6h-4zm-7 2.42c-.6301043-.2778734-1.3113461-.4209341-2-.42v-12h2zm-6-24.42c.54944579.65691576 1.0318443 1.3671136 1.44 2.12-.94326165-.16001786-1.90673835-.16001786-2.85 0 .40400842-.74840159.87599649-1.45805741 1.41-2.12zm0 4c3.4803793-.00089333 6.4328031 2.55531772 6.93 6h-13.86c.49719694-3.44468228 3.44962071-6.00089333 6.93-6zm-4 8v12c-.68865393-.0009341-1.36989565.1421266-2 .42v-12.42z"/></svg>