<?xml version="1.0"?>
<svg xmlns="http://www.w3.org/2000/svg" width="512" height="512" viewBox="0 0 128 128"><g><path d="M120.75,37.75h-8.2V29.328a1.75,1.75,0,0,0-1.75-1.75H100.545V12.667a1.749,1.749,0,0,0-1.75-1.75H84.437L74.948.567A1.753,1.753,0,0,0,73.658,0H54.342a1.753,1.753,0,0,0-1.29.567l-9.489,10.35H29.205a1.749,1.749,0,0,0-1.75,1.75V27.578H17.2a1.75,1.75,0,0,0-1.75,1.75V37.75H7.25A1.75,1.75,0,0,0,5.5,39.5v5.172a6.758,6.758,0,0,0,6.75,6.75h.781V116.07a5.758,5.758,0,0,0-5.156,5.72v4.46A1.75,1.75,0,0,0,9.625,128h38.2a1.75,1.75,0,0,0,1.75-1.75v-4.46a5.759,5.759,0,0,0-5.155-5.72V83.54a13.3,13.3,0,0,1,7.622-12L64,65.933l11.961,5.611a13.3,13.3,0,0,1,7.622,12v32.53a5.759,5.759,0,0,0-5.155,5.72v4.46a1.75,1.75,0,0,0,1.75,1.75h38.2a1.75,1.75,0,0,0,1.75-1.75v-4.46a5.758,5.758,0,0,0-5.156-5.72V51.422h.781a6.758,6.758,0,0,0,6.75-6.75V39.5A1.75,1.75,0,0,0,120.75,37.75ZM55.111,3.5H72.889l6.8,7.417H48.312ZM30.955,14.417h66.09V27.578H30.955Zm-12,16.661h90.1V37.75h-90.1ZM40.917,116.04H16.531V93.75H40.917Zm0-25.79H16.531V85.29H40.917Zm5.155,31.54v2.71h-34.7v-2.71a2.253,2.253,0,0,1,2.25-2.25h30.2A2.253,2.253,0,0,1,46.072,121.79Zm41.011-36.5h24.386v4.96H87.083Zm24.386,8.46v22.29H87.083V93.75Zm5.156,28.04v2.71h-34.7v-2.71a2.252,2.252,0,0,1,2.25-2.25h30.2A2.253,2.253,0,0,1,116.625,121.79Zm-5.156-40H86.98a16.818,16.818,0,0,0-9.533-13.415l-12.7-5.959a1.748,1.748,0,0,0-1.486,0l-12.7,5.959A16.818,16.818,0,0,0,41.02,81.79H16.531V51.422h94.938ZM119,44.672a3.254,3.254,0,0,1-3.25,3.25H12.25A3.254,3.254,0,0,1,9,44.672V41.25H119Z"/><path d="M93.711,68.93h6.5a4.756,4.756,0,0,0,4.75-4.75v-1.5a4.756,4.756,0,0,0-4.75-4.75h-6.5a4.756,4.756,0,0,0-4.75,4.75v1.5A4.756,4.756,0,0,0,93.711,68.93Zm-1.25-6.25a1.25,1.25,0,0,1,1.25-1.25h6.5a1.251,1.251,0,0,1,1.25,1.25v1.5a1.252,1.252,0,0,1-1.25,1.25h-6.5a1.251,1.251,0,0,1-1.25-1.25Z"/><path d="M27.789,68.93h6.5a4.756,4.756,0,0,0,4.75-4.75v-1.5a4.756,4.756,0,0,0-4.75-4.75h-6.5a4.756,4.756,0,0,0-4.75,4.75v1.5A4.756,4.756,0,0,0,27.789,68.93Zm-1.25-6.25a1.251,1.251,0,0,1,1.25-1.25h6.5a1.25,1.25,0,0,1,1.25,1.25v1.5a1.251,1.251,0,0,1-1.25,1.25h-6.5a1.252,1.252,0,0,1-1.25-1.25Z"/><path d="M88.5,19.248h-49a1.75,1.75,0,0,0,0,3.5h49a1.75,1.75,0,0,0,0-3.5Z"/></g></svg>
