<svg height="496pt" viewBox="0 0 496 496" width="496pt" xmlns="http://www.w3.org/2000/svg"><path d="m64 304h16v16h-16zm0 0"/><path d="m112 304h16v16h-16zm0 0"/><path d="m160 304h16v16h-16zm0 0"/><path d="m480 312h-64v-32h48c17.648438 0 32-14.351562 32-32 0-15.070312-10.480469-27.742188-24.519531-31.121094-3.457031-23.09375-23.433594-40.878906-47.480469-40.878906-2.703125 0-5.367188.3125-8 .769531v-128.769531h-32v-48h-272v16.769531c-5.601562.964844-11.007812 2.871094-16 5.796875-7.34375-4.308594-15.535156-6.566406-24-6.566406-24.046875 0-44.023438 17.785156-47.480469 40.878906-14.039062 3.378906-24.519531 16.050782-24.519531 31.121094 0 17.648438 14.351562 32 32 32h48v152h-64v176h-16v48h496v-48h-16zm-24-88v8h8c8.824219 0 16 7.175781 16 16s-7.175781 16-16 16h-128c-8.824219 0-16-7.175781-16-16s7.175781-16 16-16h8v-8c0-17.648438 14.351562-32 32-32 6.855469 0 13.496094 2.273438 19.175781 6.558594l4.824219 3.640625 4.824219-3.640625c5.679687-4.285156 12.320312-6.558594 19.175781-6.558594 17.648438 0 32 14.351562 32 32zm-56-41.433594c-7.34375-4.308594-15.535156-6.566406-24-6.566406-20.847656 0-38.601562 13.390625-45.207031 32h-58.792969v16h42.902344c-6.671875 5.871094-10.902344 14.441406-10.902344 24 0 17.648438 14.351562 32 32 32h64v32h-144v-248h144zm-32-134.566406h-112v-32h112zm-128-32v32h-112v-32zm-208 88c-8.824219 0-16-7.175781-16-16s7.175781-16 16-16h8v-8c0-17.648438 14.351562-32 32-32 6.855469 0 13.496094 2.273438 19.175781 6.558594l4.824219 3.640625 4.824219-3.640625c3.421875-2.582032 7.214843-4.335938 11.175781-5.398438v14.839844h-32v56zm64-40h144v248h-16v-40h-128zm-64 224h176v72h224v-16h-208v-16h240v16h-16v16h16v88h-16v-72h-64v72h-16v-72h-64v72h-16v-72h-64v72h-48v-112h-16v112h-32v-112h-16v112h-32v-112h-16v112h-32zm400 160h-32v-56h32zm-80 0h-32v-56h32zm-80 0h-32v-56h32zm208 32h-464v-16h464zm0 0"/><path d="m112 80h112v16h-112zm0 0"/><path d="m112 144h112v16h-112zm0 0"/><path d="m112 208h112v16h-112zm0 0"/><path d="m128 112h16v16h-16zm0 0"/><path d="m160 112h16v16h-16zm0 0"/><path d="m192 112h16v16h-16zm0 0"/><path d="m128 176h16v16h-16zm0 0"/><path d="m160 176h16v16h-16zm0 0"/><path d="m192 176h16v16h-16zm0 0"/><path d="m128 240h16v16h-16zm0 0"/><path d="m160 240h16v16h-16zm0 0"/><path d="m192 240h16v16h-16zm0 0"/><path d="m272 80h112v16h-112zm0 0"/><path d="m272 144h112v16h-112zm0 0"/><path d="m288 112h16v16h-16zm0 0"/><path d="m320 112h16v16h-16zm0 0"/><path d="m352 112h16v16h-16zm0 0"/><path d="m288 176h16v16h-16zm0 0"/><path d="m320 176h16v16h-16zm0 0"/></svg>