<svg height="512" viewBox="0 0 512 512" width="512" xmlns="http://www.w3.org/2000/svg"><g id="Outline"><path d="m320 288v-104a8 8 0 0 0 -10.353-7.646l-104 32a8 8 0 0 0 -5.647 7.646v80h16v-74.091l88-27.077v29.168h-32v16h32v16h-56v16h56v16z"/><path d="m136 104h88v80h16v-88a8 8 0 0 0 -8-8h-8v-24a8 8 0 0 0 -8-8h-8v-24a8 8 0 0 0 -8-8h-40a8 8 0 0 0 -8 8v24h-8a8 8 0 0 0 -8 8v24h-8a8 8 0 0 0 -8 8v96h16zm32-64h24v16h-24zm-16 32h56v16h-56z"/><path d="m288 83.352 96 34.286v74.362h16v-80a8 8 0 0 0 -5.31-7.534l-18.69-6.675v-42.362a8 8 0 0 0 -5.31-7.534l-18.69-6.676v-17.219h-16v11.505l-13.31-4.753a8 8 0 0 0 -10.69 7.534v36.648l-29.31-10.468a8 8 0 0 0 -10.69 7.534v96h16zm40-33.714 32 11.428v31.011l-32-11.429z"/><path d="m480 480v-264a8 8 0 0 0 -8-8h-8v-16h-16v16h-16v-16h-16v16h-56a8 8 0 0 0 -8 8v72h16v-64h96v24h-72v16h72v16h-32v16h32v16h-32v16h32v16h-32v16h32v16h-40v16h40v16h-40v16h40v16h-40v16h40v24h-64v-120h8a8 8 0 0 0 8-8v-48a8 8 0 0 0 -8.884-7.951l-144 16a8 8 0 0 0 -7.116 7.951v32a8 8 0 0 0 8 8h8v120h-40v-160a8 8 0 0 0 -8-8h-40v-8a24.039 24.039 0 0 0 -16-22.624v-17.376h-16v17.376a24.039 24.039 0 0 0 -16 22.624v8h-8a8 8 0 0 0 -8 8v160h-72v-24h48v-16h-48v-16h40v-16h-40v-16h40v-16h-40v-16h48v-16h-48v-16h40v-16h-40v-16h64v-16h-64v-16h72v-16h-72v-24h104v24h16v-32a8 8 0 0 0 -8-8h-56v-16h-16v16h-16v-32h-16v32h-16a8 8 0 0 0 -8 8v264h-16v16h480v-16zm-208-152.84 128-14.222v31.062h-128zm16 32.84h96v120h-96zm-136-56a8 8 0 0 1 16 0v8h-16zm-16 24h80v152h-80z"/><path d="m312 376h16v16h-16z"/><path d="m160 120h16v16h-16z"/><path d="m152 176h16v16h-16z"/><path d="m192 152h16v16h-16z"/><path d="m344 376h16v16h-16z"/><path d="m312 408h16v16h-16z"/><path d="m344 408h16v16h-16z"/><path d="m312 440h16v16h-16z"/><path d="m344 440h16v16h-16z"/><path d="m152 352h16v104h-16z"/><path d="m184 352h16v104h-16z"/><path d="m304 120h16v16h-16z"/><path d="m352 136h16v16h-16z"/><path d="m336 176h16v16h-16z"/></g></svg>